<?xml version="1.0" encoding="utf-8" standalone="no"?>
<!DOCTYPE svg PUBLIC "-//W3C//DTD SVG 1.1//EN"
  "http://www.w3.org/Graphics/SVG/1.1/DTD/svg11.dtd">
<!-- Created with matplotlib (http://matplotlib.org/) -->
<svg height="444pt" version="1.1" viewBox="0 0 593 444" width="593pt" xmlns="http://www.w3.org/2000/svg" xmlns:xlink="http://www.w3.org/1999/xlink">
 <defs>
  <style type="text/css">
*{stroke-linecap:butt;stroke-linejoin:round;}
  </style>
 </defs>
 <g id="figure_1">
  <g id="patch_1">
   <path d="M 0 444.96 
L 593.28 444.96 
L 593.28 0 
L 0 0 
z
" style="fill:#ffffff;"/>
  </g>
  <g id="axes_1">
   <g id="patch_2">
    <path d="M 74.16 396.0144 
L 533.952 396.0144 
L 533.952 53.3952 
L 74.16 53.3952 
z
" style="fill:#ffffff;"/>
   </g>
   <g id="matplotlib.axis_1">
    <g id="xtick_1">
     <g id="line2d_1">
      <defs>
       <path d="M 0 0 
L 0 3.5 
" id="mafe301fc4b" style="stroke:#000000;stroke-width:0.8;"/>
      </defs>
      <g>
       <use style="stroke:#000000;stroke-width:0.8;" x="95.059636" xlink:href="#mafe301fc4b" y="396.0144"/>
      </g>
     </g>
     <g id="text_1">
      <!-- 0.00 -->
      <defs>
       <path d="M 31.78125 66.40625 
Q 24.171875 66.40625 20.328125 58.90625 
Q 16.5 51.421875 16.5 36.375 
Q 16.5 21.390625 20.328125 13.890625 
Q 24.171875 6.390625 31.78125 6.390625 
Q 39.453125 6.390625 43.28125 13.890625 
Q 47.125 21.390625 47.125 36.375 
Q 47.125 51.421875 43.28125 58.90625 
Q 39.453125 66.40625 31.78125 66.40625 
M 31.78125 74.21875 
Q 44.046875 74.21875 50.515625 64.515625 
Q 56.984375 54.828125 56.984375 36.375 
Q 56.984375 17.96875 50.515625 8.265625 
Q 44.046875 -1.421875 31.78125 -1.421875 
Q 19.53125 -1.421875 13.0625 8.265625 
Q 6.59375 17.96875 6.59375 36.375 
Q 6.59375 54.828125 13.0625 64.515625 
Q 19.53125 74.21875 31.78125 74.21875 
" id="DejaVuSans-30"/>
       <path d="M 10.6875 12.40625 
L 21 12.40625 
L 21 0 
L 10.6875 0 
z
" id="DejaVuSans-2e"/>
      </defs>
      <g transform="translate(83.926824 410.612838)scale(0.1 -0.1)">
       <use xlink:href="#DejaVuSans-30"/>
       <use x="63.623047" xlink:href="#DejaVuSans-2e"/>
       <use x="95.410156" xlink:href="#DejaVuSans-30"/>
       <use x="159.033203" xlink:href="#DejaVuSans-30"/>
      </g>
     </g>
    </g>
    <g id="xtick_2">
     <g id="line2d_2">
      <g>
       <use style="stroke:#000000;stroke-width:0.8;" x="147.836496" xlink:href="#mafe301fc4b" y="396.0144"/>
      </g>
     </g>
     <g id="text_2">
      <!-- 0.25 -->
      <defs>
       <path d="M 19.1875 8.296875 
L 53.609375 8.296875 
L 53.609375 0 
L 7.328125 0 
L 7.328125 8.296875 
Q 12.9375 14.109375 22.625 23.890625 
Q 32.328125 33.6875 34.8125 36.53125 
Q 39.546875 41.84375 41.421875 45.53125 
Q 43.3125 49.21875 43.3125 52.78125 
Q 43.3125 58.59375 39.234375 62.25 
Q 35.15625 65.921875 28.609375 65.921875 
Q 23.96875 65.921875 18.8125 64.3125 
Q 13.671875 62.703125 7.8125 59.421875 
L 7.8125 69.390625 
Q 13.765625 71.78125 18.9375 73 
Q 24.125 74.21875 28.421875 74.21875 
Q 39.75 74.21875 46.484375 68.546875 
Q 53.21875 62.890625 53.21875 53.421875 
Q 53.21875 48.921875 51.53125 44.890625 
Q 49.859375 40.875 45.40625 35.40625 
Q 44.1875 33.984375 37.640625 27.21875 
Q 31.109375 20.453125 19.1875 8.296875 
" id="DejaVuSans-32"/>
       <path d="M 10.796875 72.90625 
L 49.515625 72.90625 
L 49.515625 64.59375 
L 19.828125 64.59375 
L 19.828125 46.734375 
Q 21.96875 47.46875 24.109375 47.828125 
Q 26.265625 48.1875 28.421875 48.1875 
Q 40.625 48.1875 47.75 41.5 
Q 54.890625 34.8125 54.890625 23.390625 
Q 54.890625 11.625 47.5625 5.09375 
Q 40.234375 -1.421875 26.90625 -1.421875 
Q 22.3125 -1.421875 17.546875 -0.640625 
Q 12.796875 0.140625 7.71875 1.703125 
L 7.71875 11.625 
Q 12.109375 9.234375 16.796875 8.0625 
Q 21.484375 6.890625 26.703125 6.890625 
Q 35.15625 6.890625 40.078125 11.328125 
Q 45.015625 15.765625 45.015625 23.390625 
Q 45.015625 31 40.078125 35.4375 
Q 35.15625 39.890625 26.703125 39.890625 
Q 22.75 39.890625 18.8125 39.015625 
Q 14.890625 38.140625 10.796875 36.28125 
z
" id="DejaVuSans-35"/>
      </defs>
      <g transform="translate(136.703683 410.612838)scale(0.1 -0.1)">
       <use xlink:href="#DejaVuSans-30"/>
       <use x="63.623047" xlink:href="#DejaVuSans-2e"/>
       <use x="95.410156" xlink:href="#DejaVuSans-32"/>
       <use x="159.033203" xlink:href="#DejaVuSans-35"/>
      </g>
     </g>
    </g>
    <g id="xtick_3">
     <g id="line2d_3">
      <g>
       <use style="stroke:#000000;stroke-width:0.8;" x="200.613355" xlink:href="#mafe301fc4b" y="396.0144"/>
      </g>
     </g>
     <g id="text_3">
      <!-- 0.50 -->
      <g transform="translate(189.480543 410.612838)scale(0.1 -0.1)">
       <use xlink:href="#DejaVuSans-30"/>
       <use x="63.623047" xlink:href="#DejaVuSans-2e"/>
       <use x="95.410156" xlink:href="#DejaVuSans-35"/>
       <use x="159.033203" xlink:href="#DejaVuSans-30"/>
      </g>
     </g>
    </g>
    <g id="xtick_4">
     <g id="line2d_4">
      <g>
       <use style="stroke:#000000;stroke-width:0.8;" x="253.390215" xlink:href="#mafe301fc4b" y="396.0144"/>
      </g>
     </g>
     <g id="text_4">
      <!-- 0.75 -->
      <defs>
       <path d="M 8.203125 72.90625 
L 55.078125 72.90625 
L 55.078125 68.703125 
L 28.609375 0 
L 18.3125 0 
L 43.21875 64.59375 
L 8.203125 64.59375 
z
" id="DejaVuSans-37"/>
      </defs>
      <g transform="translate(242.257402 410.612838)scale(0.1 -0.1)">
       <use xlink:href="#DejaVuSans-30"/>
       <use x="63.623047" xlink:href="#DejaVuSans-2e"/>
       <use x="95.410156" xlink:href="#DejaVuSans-37"/>
       <use x="159.033203" xlink:href="#DejaVuSans-35"/>
      </g>
     </g>
    </g>
    <g id="xtick_5">
     <g id="line2d_5">
      <g>
       <use style="stroke:#000000;stroke-width:0.8;" x="306.167074" xlink:href="#mafe301fc4b" y="396.0144"/>
      </g>
     </g>
     <g id="text_5">
      <!-- 1.00 -->
      <defs>
       <path d="M 12.40625 8.296875 
L 28.515625 8.296875 
L 28.515625 63.921875 
L 10.984375 60.40625 
L 10.984375 69.390625 
L 28.421875 72.90625 
L 38.28125 72.90625 
L 38.28125 8.296875 
L 54.390625 8.296875 
L 54.390625 0 
L 12.40625 0 
z
" id="DejaVuSans-31"/>
      </defs>
      <g transform="translate(295.034262 410.612838)scale(0.1 -0.1)">
       <use xlink:href="#DejaVuSans-31"/>
       <use x="63.623047" xlink:href="#DejaVuSans-2e"/>
       <use x="95.410156" xlink:href="#DejaVuSans-30"/>
       <use x="159.033203" xlink:href="#DejaVuSans-30"/>
      </g>
     </g>
    </g>
    <g id="xtick_6">
     <g id="line2d_6">
      <g>
       <use style="stroke:#000000;stroke-width:0.8;" x="358.943934" xlink:href="#mafe301fc4b" y="396.0144"/>
      </g>
     </g>
     <g id="text_6">
      <!-- 1.25 -->
      <g transform="translate(347.811121 410.612838)scale(0.1 -0.1)">
       <use xlink:href="#DejaVuSans-31"/>
       <use x="63.623047" xlink:href="#DejaVuSans-2e"/>
       <use x="95.410156" xlink:href="#DejaVuSans-32"/>
       <use x="159.033203" xlink:href="#DejaVuSans-35"/>
      </g>
     </g>
    </g>
    <g id="xtick_7">
     <g id="line2d_7">
      <g>
       <use style="stroke:#000000;stroke-width:0.8;" x="411.720793" xlink:href="#mafe301fc4b" y="396.0144"/>
      </g>
     </g>
     <g id="text_7">
      <!-- 1.50 -->
      <g transform="translate(400.587981 410.612838)scale(0.1 -0.1)">
       <use xlink:href="#DejaVuSans-31"/>
       <use x="63.623047" xlink:href="#DejaVuSans-2e"/>
       <use x="95.410156" xlink:href="#DejaVuSans-35"/>
       <use x="159.033203" xlink:href="#DejaVuSans-30"/>
      </g>
     </g>
    </g>
    <g id="xtick_8">
     <g id="line2d_8">
      <g>
       <use style="stroke:#000000;stroke-width:0.8;" x="464.497653" xlink:href="#mafe301fc4b" y="396.0144"/>
      </g>
     </g>
     <g id="text_8">
      <!-- 1.75 -->
      <g transform="translate(453.36484 410.612838)scale(0.1 -0.1)">
       <use xlink:href="#DejaVuSans-31"/>
       <use x="63.623047" xlink:href="#DejaVuSans-2e"/>
       <use x="95.410156" xlink:href="#DejaVuSans-37"/>
       <use x="159.033203" xlink:href="#DejaVuSans-35"/>
      </g>
     </g>
    </g>
    <g id="xtick_9">
     <g id="line2d_9">
      <g>
       <use style="stroke:#000000;stroke-width:0.8;" x="517.274512" xlink:href="#mafe301fc4b" y="396.0144"/>
      </g>
     </g>
     <g id="text_9">
      <!-- 2.00 -->
      <g transform="translate(506.1417 410.612838)scale(0.1 -0.1)">
       <use xlink:href="#DejaVuSans-32"/>
       <use x="63.623047" xlink:href="#DejaVuSans-2e"/>
       <use x="95.410156" xlink:href="#DejaVuSans-30"/>
       <use x="159.033203" xlink:href="#DejaVuSans-30"/>
      </g>
     </g>
    </g>
    <g id="text_10">
     <!-- Time, s -->
     <defs>
      <path d="M -0.296875 72.90625 
L 61.375 72.90625 
L 61.375 64.59375 
L 35.5 64.59375 
L 35.5 0 
L 25.59375 0 
L 25.59375 64.59375 
L -0.296875 64.59375 
z
" id="DejaVuSans-54"/>
      <path d="M 9.421875 54.6875 
L 18.40625 54.6875 
L 18.40625 0 
L 9.421875 0 
z
M 9.421875 75.984375 
L 18.40625 75.984375 
L 18.40625 64.59375 
L 9.421875 64.59375 
z
" id="DejaVuSans-69"/>
      <path d="M 52 44.1875 
Q 55.375 50.25 60.0625 53.125 
Q 64.75 56 71.09375 56 
Q 79.640625 56 84.28125 50.015625 
Q 88.921875 44.046875 88.921875 33.015625 
L 88.921875 0 
L 79.890625 0 
L 79.890625 32.71875 
Q 79.890625 40.578125 77.09375 44.375 
Q 74.3125 48.1875 68.609375 48.1875 
Q 61.625 48.1875 57.5625 43.546875 
Q 53.515625 38.921875 53.515625 30.90625 
L 53.515625 0 
L 44.484375 0 
L 44.484375 32.71875 
Q 44.484375 40.625 41.703125 44.40625 
Q 38.921875 48.1875 33.109375 48.1875 
Q 26.21875 48.1875 22.15625 43.53125 
Q 18.109375 38.875 18.109375 30.90625 
L 18.109375 0 
L 9.078125 0 
L 9.078125 54.6875 
L 18.109375 54.6875 
L 18.109375 46.1875 
Q 21.1875 51.21875 25.484375 53.609375 
Q 29.78125 56 35.6875 56 
Q 41.65625 56 45.828125 52.96875 
Q 50 49.953125 52 44.1875 
" id="DejaVuSans-6d"/>
      <path d="M 56.203125 29.59375 
L 56.203125 25.203125 
L 14.890625 25.203125 
Q 15.484375 15.921875 20.484375 11.0625 
Q 25.484375 6.203125 34.421875 6.203125 
Q 39.59375 6.203125 44.453125 7.46875 
Q 49.3125 8.734375 54.109375 11.28125 
L 54.109375 2.78125 
Q 49.265625 0.734375 44.1875 -0.34375 
Q 39.109375 -1.421875 33.890625 -1.421875 
Q 20.796875 -1.421875 13.15625 6.1875 
Q 5.515625 13.8125 5.515625 26.8125 
Q 5.515625 40.234375 12.765625 48.109375 
Q 20.015625 56 32.328125 56 
Q 43.359375 56 49.78125 48.890625 
Q 56.203125 41.796875 56.203125 29.59375 
M 47.21875 32.234375 
Q 47.125 39.59375 43.09375 43.984375 
Q 39.0625 48.390625 32.421875 48.390625 
Q 24.90625 48.390625 20.390625 44.140625 
Q 15.875 39.890625 15.1875 32.171875 
z
" id="DejaVuSans-65"/>
      <path d="M 11.71875 12.40625 
L 22.015625 12.40625 
L 22.015625 4 
L 14.015625 -11.625 
L 7.71875 -11.625 
L 11.71875 4 
z
" id="DejaVuSans-2c"/>
      <path id="DejaVuSans-20"/>
      <path d="M 44.28125 53.078125 
L 44.28125 44.578125 
Q 40.484375 46.53125 36.375 47.5 
Q 32.28125 48.484375 27.875 48.484375 
Q 21.1875 48.484375 17.84375 46.4375 
Q 14.5 44.390625 14.5 40.28125 
Q 14.5 37.15625 16.890625 35.375 
Q 19.28125 33.59375 26.515625 31.984375 
L 29.59375 31.296875 
Q 39.15625 29.25 43.1875 25.515625 
Q 47.21875 21.78125 47.21875 15.09375 
Q 47.21875 7.46875 41.1875 3.015625 
Q 35.15625 -1.421875 24.609375 -1.421875 
Q 20.21875 -1.421875 15.453125 -0.5625 
Q 10.6875 0.296875 5.421875 2 
L 5.421875 11.28125 
Q 10.40625 8.6875 15.234375 7.390625 
Q 20.0625 6.109375 24.8125 6.109375 
Q 31.15625 6.109375 34.5625 8.28125 
Q 37.984375 10.453125 37.984375 14.40625 
Q 37.984375 18.0625 35.515625 20.015625 
Q 33.0625 21.96875 24.703125 23.78125 
L 21.578125 24.515625 
Q 13.234375 26.265625 9.515625 29.90625 
Q 5.8125 33.546875 5.8125 39.890625 
Q 5.8125 47.609375 11.28125 51.796875 
Q 16.75 56 26.8125 56 
Q 31.78125 56 36.171875 55.265625 
Q 40.578125 54.546875 44.28125 53.078125 
" id="DejaVuSans-73"/>
     </defs>
     <g transform="translate(285.885688 424.290962)scale(0.1 -0.1)">
      <use xlink:href="#DejaVuSans-54"/>
      <use x="61.037109" xlink:href="#DejaVuSans-69"/>
      <use x="88.820312" xlink:href="#DejaVuSans-6d"/>
      <use x="186.232422" xlink:href="#DejaVuSans-65"/>
      <use x="247.755859" xlink:href="#DejaVuSans-2c"/>
      <use x="279.542969" xlink:href="#DejaVuSans-20"/>
      <use x="311.330078" xlink:href="#DejaVuSans-73"/>
     </g>
    </g>
   </g>
   <g id="matplotlib.axis_2">
    <g id="ytick_1">
     <g id="line2d_10">
      <defs>
       <path d="M 0 0 
L -3.5 0 
" id="m51c87c5b8c" style="stroke:#000000;stroke-width:0.8;"/>
      </defs>
      <g>
       <use style="stroke:#000000;stroke-width:0.8;" x="74.16" xlink:href="#m51c87c5b8c" y="380.4408"/>
      </g>
     </g>
     <g id="text_11">
      <!-- 0.00 -->
      <g transform="translate(44.894375 384.240019)scale(0.1 -0.1)">
       <use xlink:href="#DejaVuSans-30"/>
       <use x="63.623047" xlink:href="#DejaVuSans-2e"/>
       <use x="95.410156" xlink:href="#DejaVuSans-30"/>
       <use x="159.033203" xlink:href="#DejaVuSans-30"/>
      </g>
     </g>
    </g>
    <g id="ytick_2">
     <g id="line2d_11">
      <g>
       <use style="stroke:#000000;stroke-width:0.8;" x="74.16" xlink:href="#m51c87c5b8c" y="341.5068"/>
      </g>
     </g>
     <g id="text_12">
      <!-- 0.25 -->
      <g transform="translate(44.894375 345.306019)scale(0.1 -0.1)">
       <use xlink:href="#DejaVuSans-30"/>
       <use x="63.623047" xlink:href="#DejaVuSans-2e"/>
       <use x="95.410156" xlink:href="#DejaVuSans-32"/>
       <use x="159.033203" xlink:href="#DejaVuSans-35"/>
      </g>
     </g>
    </g>
    <g id="ytick_3">
     <g id="line2d_12">
      <g>
       <use style="stroke:#000000;stroke-width:0.8;" x="74.16" xlink:href="#m51c87c5b8c" y="302.5728"/>
      </g>
     </g>
     <g id="text_13">
      <!-- 0.50 -->
      <g transform="translate(44.894375 306.372019)scale(0.1 -0.1)">
       <use xlink:href="#DejaVuSans-30"/>
       <use x="63.623047" xlink:href="#DejaVuSans-2e"/>
       <use x="95.410156" xlink:href="#DejaVuSans-35"/>
       <use x="159.033203" xlink:href="#DejaVuSans-30"/>
      </g>
     </g>
    </g>
    <g id="ytick_4">
     <g id="line2d_13">
      <g>
       <use style="stroke:#000000;stroke-width:0.8;" x="74.16" xlink:href="#m51c87c5b8c" y="263.6388"/>
      </g>
     </g>
     <g id="text_14">
      <!-- 0.75 -->
      <g transform="translate(44.894375 267.438019)scale(0.1 -0.1)">
       <use xlink:href="#DejaVuSans-30"/>
       <use x="63.623047" xlink:href="#DejaVuSans-2e"/>
       <use x="95.410156" xlink:href="#DejaVuSans-37"/>
       <use x="159.033203" xlink:href="#DejaVuSans-35"/>
      </g>
     </g>
    </g>
    <g id="ytick_5">
     <g id="line2d_14">
      <g>
       <use style="stroke:#000000;stroke-width:0.8;" x="74.16" xlink:href="#m51c87c5b8c" y="224.7048"/>
      </g>
     </g>
     <g id="text_15">
      <!-- 1.00 -->
      <g transform="translate(44.894375 228.504019)scale(0.1 -0.1)">
       <use xlink:href="#DejaVuSans-31"/>
       <use x="63.623047" xlink:href="#DejaVuSans-2e"/>
       <use x="95.410156" xlink:href="#DejaVuSans-30"/>
       <use x="159.033203" xlink:href="#DejaVuSans-30"/>
      </g>
     </g>
    </g>
    <g id="ytick_6">
     <g id="line2d_15">
      <g>
       <use style="stroke:#000000;stroke-width:0.8;" x="74.16" xlink:href="#m51c87c5b8c" y="185.7708"/>
      </g>
     </g>
     <g id="text_16">
      <!-- 1.25 -->
      <g transform="translate(44.894375 189.570019)scale(0.1 -0.1)">
       <use xlink:href="#DejaVuSans-31"/>
       <use x="63.623047" xlink:href="#DejaVuSans-2e"/>
       <use x="95.410156" xlink:href="#DejaVuSans-32"/>
       <use x="159.033203" xlink:href="#DejaVuSans-35"/>
      </g>
     </g>
    </g>
    <g id="ytick_7">
     <g id="line2d_16">
      <g>
       <use style="stroke:#000000;stroke-width:0.8;" x="74.16" xlink:href="#m51c87c5b8c" y="146.8368"/>
      </g>
     </g>
     <g id="text_17">
      <!-- 1.50 -->
      <g transform="translate(44.894375 150.636019)scale(0.1 -0.1)">
       <use xlink:href="#DejaVuSans-31"/>
       <use x="63.623047" xlink:href="#DejaVuSans-2e"/>
       <use x="95.410156" xlink:href="#DejaVuSans-35"/>
       <use x="159.033203" xlink:href="#DejaVuSans-30"/>
      </g>
     </g>
    </g>
    <g id="ytick_8">
     <g id="line2d_17">
      <g>
       <use style="stroke:#000000;stroke-width:0.8;" x="74.16" xlink:href="#m51c87c5b8c" y="107.9028"/>
      </g>
     </g>
     <g id="text_18">
      <!-- 1.75 -->
      <g transform="translate(44.894375 111.702019)scale(0.1 -0.1)">
       <use xlink:href="#DejaVuSans-31"/>
       <use x="63.623047" xlink:href="#DejaVuSans-2e"/>
       <use x="95.410156" xlink:href="#DejaVuSans-37"/>
       <use x="159.033203" xlink:href="#DejaVuSans-35"/>
      </g>
     </g>
    </g>
    <g id="ytick_9">
     <g id="line2d_18">
      <g>
       <use style="stroke:#000000;stroke-width:0.8;" x="74.16" xlink:href="#m51c87c5b8c" y="68.9688"/>
      </g>
     </g>
     <g id="text_19">
      <!-- 2.00 -->
      <g transform="translate(44.894375 72.768019)scale(0.1 -0.1)">
       <use xlink:href="#DejaVuSans-32"/>
       <use x="63.623047" xlink:href="#DejaVuSans-2e"/>
       <use x="95.410156" xlink:href="#DejaVuSans-30"/>
       <use x="159.033203" xlink:href="#DejaVuSans-30"/>
      </g>
     </g>
    </g>
    <g id="text_20">
     <!-- Voltage, V -->
     <defs>
      <path d="M 28.609375 0 
L 0.78125 72.90625 
L 11.078125 72.90625 
L 34.1875 11.53125 
L 57.328125 72.90625 
L 67.578125 72.90625 
L 39.796875 0 
z
" id="DejaVuSans-56"/>
      <path d="M 30.609375 48.390625 
Q 23.390625 48.390625 19.1875 42.75 
Q 14.984375 37.109375 14.984375 27.296875 
Q 14.984375 17.484375 19.15625 11.84375 
Q 23.34375 6.203125 30.609375 6.203125 
Q 37.796875 6.203125 41.984375 11.859375 
Q 46.1875 17.53125 46.1875 27.296875 
Q 46.1875 37.015625 41.984375 42.703125 
Q 37.796875 48.390625 30.609375 48.390625 
M 30.609375 56 
Q 42.328125 56 49.015625 48.375 
Q 55.71875 40.765625 55.71875 27.296875 
Q 55.71875 13.875 49.015625 6.21875 
Q 42.328125 -1.421875 30.609375 -1.421875 
Q 18.84375 -1.421875 12.171875 6.21875 
Q 5.515625 13.875 5.515625 27.296875 
Q 5.515625 40.765625 12.171875 48.375 
Q 18.84375 56 30.609375 56 
" id="DejaVuSans-6f"/>
      <path d="M 9.421875 75.984375 
L 18.40625 75.984375 
L 18.40625 0 
L 9.421875 0 
z
" id="DejaVuSans-6c"/>
      <path d="M 18.3125 70.21875 
L 18.3125 54.6875 
L 36.8125 54.6875 
L 36.8125 47.703125 
L 18.3125 47.703125 
L 18.3125 18.015625 
Q 18.3125 11.328125 20.140625 9.421875 
Q 21.96875 7.515625 27.59375 7.515625 
L 36.8125 7.515625 
L 36.8125 0 
L 27.59375 0 
Q 17.1875 0 13.234375 3.875 
Q 9.28125 7.765625 9.28125 18.015625 
L 9.28125 47.703125 
L 2.6875 47.703125 
L 2.6875 54.6875 
L 9.28125 54.6875 
L 9.28125 70.21875 
z
" id="DejaVuSans-74"/>
      <path d="M 34.28125 27.484375 
Q 23.390625 27.484375 19.1875 25 
Q 14.984375 22.515625 14.984375 16.5 
Q 14.984375 11.71875 18.140625 8.90625 
Q 21.296875 6.109375 26.703125 6.109375 
Q 34.1875 6.109375 38.703125 11.40625 
Q 43.21875 16.703125 43.21875 25.484375 
L 43.21875 27.484375 
z
M 52.203125 31.203125 
L 52.203125 0 
L 43.21875 0 
L 43.21875 8.296875 
Q 40.140625 3.328125 35.546875 0.953125 
Q 30.953125 -1.421875 24.3125 -1.421875 
Q 15.921875 -1.421875 10.953125 3.296875 
Q 6 8.015625 6 15.921875 
Q 6 25.140625 12.171875 29.828125 
Q 18.359375 34.515625 30.609375 34.515625 
L 43.21875 34.515625 
L 43.21875 35.40625 
Q 43.21875 41.609375 39.140625 45 
Q 35.0625 48.390625 27.6875 48.390625 
Q 23 48.390625 18.546875 47.265625 
Q 14.109375 46.140625 10.015625 43.890625 
L 10.015625 52.203125 
Q 14.9375 54.109375 19.578125 55.046875 
Q 24.21875 56 28.609375 56 
Q 40.484375 56 46.34375 49.84375 
Q 52.203125 43.703125 52.203125 31.203125 
" id="DejaVuSans-61"/>
      <path d="M 45.40625 27.984375 
Q 45.40625 37.75 41.375 43.109375 
Q 37.359375 48.484375 30.078125 48.484375 
Q 22.859375 48.484375 18.828125 43.109375 
Q 14.796875 37.75 14.796875 27.984375 
Q 14.796875 18.265625 18.828125 12.890625 
Q 22.859375 7.515625 30.078125 7.515625 
Q 37.359375 7.515625 41.375 12.890625 
Q 45.40625 18.265625 45.40625 27.984375 
M 54.390625 6.78125 
Q 54.390625 -7.171875 48.1875 -13.984375 
Q 42 -20.796875 29.203125 -20.796875 
Q 24.46875 -20.796875 20.265625 -20.09375 
Q 16.0625 -19.390625 12.109375 -17.921875 
L 12.109375 -9.1875 
Q 16.0625 -11.328125 19.921875 -12.34375 
Q 23.78125 -13.375 27.78125 -13.375 
Q 36.625 -13.375 41.015625 -8.765625 
Q 45.40625 -4.15625 45.40625 5.171875 
L 45.40625 9.625 
Q 42.625 4.78125 38.28125 2.390625 
Q 33.9375 0 27.875 0 
Q 17.828125 0 11.671875 7.65625 
Q 5.515625 15.328125 5.515625 27.984375 
Q 5.515625 40.671875 11.671875 48.328125 
Q 17.828125 56 27.875 56 
Q 33.9375 56 38.28125 53.609375 
Q 42.625 51.21875 45.40625 46.390625 
L 45.40625 54.6875 
L 54.390625 54.6875 
z
" id="DejaVuSans-67"/>
     </defs>
     <g transform="translate(38.814687 250.441519)rotate(-90)scale(0.1 -0.1)">
      <use xlink:href="#DejaVuSans-56"/>
      <use x="68.298828" xlink:href="#DejaVuSans-6f"/>
      <use x="129.480469" xlink:href="#DejaVuSans-6c"/>
      <use x="157.263672" xlink:href="#DejaVuSans-74"/>
      <use x="196.472656" xlink:href="#DejaVuSans-61"/>
      <use x="257.751953" xlink:href="#DejaVuSans-67"/>
      <use x="321.228516" xlink:href="#DejaVuSans-65"/>
      <use x="382.751953" xlink:href="#DejaVuSans-2c"/>
      <use x="414.539062" xlink:href="#DejaVuSans-20"/>
      <use x="446.326172" xlink:href="#DejaVuSans-56"/>
     </g>
    </g>
   </g>
   <g id="line2d_19">
    <path clip-path="url(#p4423a5532e)" d="M 95.059636 224.7048 
L 101.39286 195.522784 
L 107.726083 167.374555 
L 114.059306 141.257278 
L 120.392529 118.096172 
L 126.725752 98.711729 
L 133.058975 83.790654 
L 139.392198 73.861533 
L 145.725421 69.276109 
L 152.058645 70.196825 
L 158.391868 76.591062 
L 164.725091 88.232303 
L 171.058314 104.70815 
L 177.391537 125.434938 
L 183.72476 149.67841 
L 190.057983 176.579729 
L 196.391207 205.185904 
L 202.72443 234.483544 
L 209.057653 263.434768 
L 215.390876 291.013964 
L 221.724099 316.244124 
L 228.057322 338.231458 
L 234.390545 356.197054 
L 240.723769 369.504471 
L 247.056992 377.682287 
L 253.390215 380.4408 
L 259.723438 377.682287 
L 266.056661 369.504471 
L 272.389884 356.197054 
L 278.723107 338.231458 
L 285.056331 316.244124 
L 291.389554 291.013964 
L 297.722777 263.434768 
L 304.056 234.483544 
L 310.389223 205.185904 
L 316.722446 176.579729 
L 323.055669 149.67841 
L 329.388893 125.434938 
L 335.722116 104.70815 
L 342.055339 88.232303 
L 348.388562 76.591062 
L 354.721785 70.196825 
L 361.055008 69.276109 
L 367.388231 73.861533 
L 373.721455 83.790654 
L 380.054678 98.711729 
L 386.387901 118.096172 
L 392.721124 141.257278 
L 399.054347 167.374555 
L 405.38757 195.522784 
L 411.720793 224.7048 
L 418.054017 253.886816 
L 424.38724 282.035045 
L 430.720463 308.152322 
L 437.053686 331.313428 
L 443.386909 350.697871 
L 449.720132 365.618946 
L 456.053355 375.548067 
L 462.386579 380.133491 
L 468.719802 379.212775 
L 475.053025 372.818538 
L 481.386248 361.177297 
L 487.719471 344.70145 
L 494.052694 323.974662 
L 500.385917 299.73119 
L 506.71914 272.829871 
L 513.052364 244.223696 
" style="fill:none;stroke:#1f77b4;stroke-linecap:square;stroke-width:1.5;"/>
    <defs>
     <path d="M 0 3 
C 0.795609 3 1.55874 2.683901 2.12132 2.12132 
C 2.683901 1.55874 3 0.795609 3 0 
C 3 -0.795609 2.683901 -1.55874 2.12132 -2.12132 
C 1.55874 -2.683901 0.795609 -3 0 -3 
C -0.795609 -3 -1.55874 -2.683901 -2.12132 -2.12132 
C -2.683901 -1.55874 -3 -0.795609 -3 0 
C -3 0.795609 -2.683901 1.55874 -2.12132 2.12132 
C -1.55874 2.683901 -0.795609 3 0 3 
z
" id="m4bd7bbaf6d" style="stroke:#1f77b4;"/>
    </defs>
    <g clip-path="url(#p4423a5532e)">
     <use style="fill:#ffffff;stroke:#1f77b4;" x="95.059636" xlink:href="#m4bd7bbaf6d" y="224.7048"/>
     <use style="fill:#ffffff;stroke:#1f77b4;" x="101.39286" xlink:href="#m4bd7bbaf6d" y="195.522784"/>
     <use style="fill:#ffffff;stroke:#1f77b4;" x="107.726083" xlink:href="#m4bd7bbaf6d" y="167.374555"/>
     <use style="fill:#ffffff;stroke:#1f77b4;" x="114.059306" xlink:href="#m4bd7bbaf6d" y="141.257278"/>
     <use style="fill:#ffffff;stroke:#1f77b4;" x="120.392529" xlink:href="#m4bd7bbaf6d" y="118.096172"/>
     <use style="fill:#ffffff;stroke:#1f77b4;" x="126.725752" xlink:href="#m4bd7bbaf6d" y="98.711729"/>
     <use style="fill:#ffffff;stroke:#1f77b4;" x="133.058975" xlink:href="#m4bd7bbaf6d" y="83.790654"/>
     <use style="fill:#ffffff;stroke:#1f77b4;" x="139.392198" xlink:href="#m4bd7bbaf6d" y="73.861533"/>
     <use style="fill:#ffffff;stroke:#1f77b4;" x="145.725421" xlink:href="#m4bd7bbaf6d" y="69.276109"/>
     <use style="fill:#ffffff;stroke:#1f77b4;" x="152.058645" xlink:href="#m4bd7bbaf6d" y="70.196825"/>
     <use style="fill:#ffffff;stroke:#1f77b4;" x="158.391868" xlink:href="#m4bd7bbaf6d" y="76.591062"/>
     <use style="fill:#ffffff;stroke:#1f77b4;" x="164.725091" xlink:href="#m4bd7bbaf6d" y="88.232303"/>
     <use style="fill:#ffffff;stroke:#1f77b4;" x="171.058314" xlink:href="#m4bd7bbaf6d" y="104.70815"/>
     <use style="fill:#ffffff;stroke:#1f77b4;" x="177.391537" xlink:href="#m4bd7bbaf6d" y="125.434938"/>
     <use style="fill:#ffffff;stroke:#1f77b4;" x="183.72476" xlink:href="#m4bd7bbaf6d" y="149.67841"/>
     <use style="fill:#ffffff;stroke:#1f77b4;" x="190.057983" xlink:href="#m4bd7bbaf6d" y="176.579729"/>
     <use style="fill:#ffffff;stroke:#1f77b4;" x="196.391207" xlink:href="#m4bd7bbaf6d" y="205.185904"/>
     <use style="fill:#ffffff;stroke:#1f77b4;" x="202.72443" xlink:href="#m4bd7bbaf6d" y="234.483544"/>
     <use style="fill:#ffffff;stroke:#1f77b4;" x="209.057653" xlink:href="#m4bd7bbaf6d" y="263.434768"/>
     <use style="fill:#ffffff;stroke:#1f77b4;" x="215.390876" xlink:href="#m4bd7bbaf6d" y="291.013964"/>
     <use style="fill:#ffffff;stroke:#1f77b4;" x="221.724099" xlink:href="#m4bd7bbaf6d" y="316.244124"/>
     <use style="fill:#ffffff;stroke:#1f77b4;" x="228.057322" xlink:href="#m4bd7bbaf6d" y="338.231458"/>
     <use style="fill:#ffffff;stroke:#1f77b4;" x="234.390545" xlink:href="#m4bd7bbaf6d" y="356.197054"/>
     <use style="fill:#ffffff;stroke:#1f77b4;" x="240.723769" xlink:href="#m4bd7bbaf6d" y="369.504471"/>
     <use style="fill:#ffffff;stroke:#1f77b4;" x="247.056992" xlink:href="#m4bd7bbaf6d" y="377.682287"/>
     <use style="fill:#ffffff;stroke:#1f77b4;" x="253.390215" xlink:href="#m4bd7bbaf6d" y="380.4408"/>
     <use style="fill:#ffffff;stroke:#1f77b4;" x="259.723438" xlink:href="#m4bd7bbaf6d" y="377.682287"/>
     <use style="fill:#ffffff;stroke:#1f77b4;" x="266.056661" xlink:href="#m4bd7bbaf6d" y="369.504471"/>
     <use style="fill:#ffffff;stroke:#1f77b4;" x="272.389884" xlink:href="#m4bd7bbaf6d" y="356.197054"/>
     <use style="fill:#ffffff;stroke:#1f77b4;" x="278.723107" xlink:href="#m4bd7bbaf6d" y="338.231458"/>
     <use style="fill:#ffffff;stroke:#1f77b4;" x="285.056331" xlink:href="#m4bd7bbaf6d" y="316.244124"/>
     <use style="fill:#ffffff;stroke:#1f77b4;" x="291.389554" xlink:href="#m4bd7bbaf6d" y="291.013964"/>
     <use style="fill:#ffffff;stroke:#1f77b4;" x="297.722777" xlink:href="#m4bd7bbaf6d" y="263.434768"/>
     <use style="fill:#ffffff;stroke:#1f77b4;" x="304.056" xlink:href="#m4bd7bbaf6d" y="234.483544"/>
     <use style="fill:#ffffff;stroke:#1f77b4;" x="310.389223" xlink:href="#m4bd7bbaf6d" y="205.185904"/>
     <use style="fill:#ffffff;stroke:#1f77b4;" x="316.722446" xlink:href="#m4bd7bbaf6d" y="176.579729"/>
     <use style="fill:#ffffff;stroke:#1f77b4;" x="323.055669" xlink:href="#m4bd7bbaf6d" y="149.67841"/>
     <use style="fill:#ffffff;stroke:#1f77b4;" x="329.388893" xlink:href="#m4bd7bbaf6d" y="125.434938"/>
     <use style="fill:#ffffff;stroke:#1f77b4;" x="335.722116" xlink:href="#m4bd7bbaf6d" y="104.70815"/>
     <use style="fill:#ffffff;stroke:#1f77b4;" x="342.055339" xlink:href="#m4bd7bbaf6d" y="88.232303"/>
     <use style="fill:#ffffff;stroke:#1f77b4;" x="348.388562" xlink:href="#m4bd7bbaf6d" y="76.591062"/>
     <use style="fill:#ffffff;stroke:#1f77b4;" x="354.721785" xlink:href="#m4bd7bbaf6d" y="70.196825"/>
     <use style="fill:#ffffff;stroke:#1f77b4;" x="361.055008" xlink:href="#m4bd7bbaf6d" y="69.276109"/>
     <use style="fill:#ffffff;stroke:#1f77b4;" x="367.388231" xlink:href="#m4bd7bbaf6d" y="73.861533"/>
     <use style="fill:#ffffff;stroke:#1f77b4;" x="373.721455" xlink:href="#m4bd7bbaf6d" y="83.790654"/>
     <use style="fill:#ffffff;stroke:#1f77b4;" x="380.054678" xlink:href="#m4bd7bbaf6d" y="98.711729"/>
     <use style="fill:#ffffff;stroke:#1f77b4;" x="386.387901" xlink:href="#m4bd7bbaf6d" y="118.096172"/>
     <use style="fill:#ffffff;stroke:#1f77b4;" x="392.721124" xlink:href="#m4bd7bbaf6d" y="141.257278"/>
     <use style="fill:#ffffff;stroke:#1f77b4;" x="399.054347" xlink:href="#m4bd7bbaf6d" y="167.374555"/>
     <use style="fill:#ffffff;stroke:#1f77b4;" x="405.38757" xlink:href="#m4bd7bbaf6d" y="195.522784"/>
     <use style="fill:#ffffff;stroke:#1f77b4;" x="411.720793" xlink:href="#m4bd7bbaf6d" y="224.7048"/>
     <use style="fill:#ffffff;stroke:#1f77b4;" x="418.054017" xlink:href="#m4bd7bbaf6d" y="253.886816"/>
     <use style="fill:#ffffff;stroke:#1f77b4;" x="424.38724" xlink:href="#m4bd7bbaf6d" y="282.035045"/>
     <use style="fill:#ffffff;stroke:#1f77b4;" x="430.720463" xlink:href="#m4bd7bbaf6d" y="308.152322"/>
     <use style="fill:#ffffff;stroke:#1f77b4;" x="437.053686" xlink:href="#m4bd7bbaf6d" y="331.313428"/>
     <use style="fill:#ffffff;stroke:#1f77b4;" x="443.386909" xlink:href="#m4bd7bbaf6d" y="350.697871"/>
     <use style="fill:#ffffff;stroke:#1f77b4;" x="449.720132" xlink:href="#m4bd7bbaf6d" y="365.618946"/>
     <use style="fill:#ffffff;stroke:#1f77b4;" x="456.053355" xlink:href="#m4bd7bbaf6d" y="375.548067"/>
     <use style="fill:#ffffff;stroke:#1f77b4;" x="462.386579" xlink:href="#m4bd7bbaf6d" y="380.133491"/>
     <use style="fill:#ffffff;stroke:#1f77b4;" x="468.719802" xlink:href="#m4bd7bbaf6d" y="379.212775"/>
     <use style="fill:#ffffff;stroke:#1f77b4;" x="475.053025" xlink:href="#m4bd7bbaf6d" y="372.818538"/>
     <use style="fill:#ffffff;stroke:#1f77b4;" x="481.386248" xlink:href="#m4bd7bbaf6d" y="361.177297"/>
     <use style="fill:#ffffff;stroke:#1f77b4;" x="487.719471" xlink:href="#m4bd7bbaf6d" y="344.70145"/>
     <use style="fill:#ffffff;stroke:#1f77b4;" x="494.052694" xlink:href="#m4bd7bbaf6d" y="323.974662"/>
     <use style="fill:#ffffff;stroke:#1f77b4;" x="500.385917" xlink:href="#m4bd7bbaf6d" y="299.73119"/>
     <use style="fill:#ffffff;stroke:#1f77b4;" x="506.71914" xlink:href="#m4bd7bbaf6d" y="272.829871"/>
     <use style="fill:#ffffff;stroke:#1f77b4;" x="513.052364" xlink:href="#m4bd7bbaf6d" y="244.223696"/>
    </g>
   </g>
   <g id="line2d_20">
    <path clip-path="url(#p4423a5532e)" d="M 95.059636 224.7048 
L 101.39286 253.886816 
L 107.726083 282.035045 
L 114.059306 308.152322 
L 120.392529 331.313428 
L 126.725752 350.697871 
L 133.058975 365.618946 
L 139.392198 375.548067 
L 145.725421 380.133491 
L 152.058645 379.212775 
L 158.391868 372.818538 
L 164.725091 361.177297 
L 171.058314 344.70145 
L 177.391537 323.974662 
L 183.72476 299.73119 
L 190.057983 272.829871 
L 196.391207 244.223696 
L 202.72443 214.926056 
L 209.057653 185.974832 
L 215.390876 158.395636 
L 221.724099 133.165476 
L 228.057322 111.178142 
L 234.390545 93.212546 
L 240.723769 79.905129 
L 247.056992 71.727313 
L 253.390215 68.9688 
L 259.723438 71.727313 
L 266.056661 79.905129 
L 272.389884 93.212546 
L 278.723107 111.178142 
L 285.056331 133.165476 
L 291.389554 158.395636 
L 297.722777 185.974832 
L 304.056 214.926056 
L 310.389223 244.223696 
L 316.722446 272.829871 
L 323.055669 299.73119 
L 329.388893 323.974662 
L 335.722116 344.70145 
L 342.055339 361.177297 
L 348.388562 372.818538 
L 354.721785 379.212775 
L 361.055008 380.133491 
L 367.388231 375.548067 
L 373.721455 365.618946 
L 380.054678 350.697871 
L 386.387901 331.313428 
L 392.721124 308.152322 
L 399.054347 282.035045 
L 405.38757 253.886816 
L 411.720793 224.7048 
L 418.054017 195.522784 
L 424.38724 167.374555 
L 430.720463 141.257278 
L 437.053686 118.096172 
L 443.386909 98.711729 
L 449.720132 83.790654 
L 456.053355 73.861533 
L 462.386579 69.276109 
L 468.719802 70.196825 
L 475.053025 76.591062 
L 481.386248 88.232303 
L 487.719471 104.70815 
L 494.052694 125.434938 
L 500.385917 149.67841 
L 506.71914 176.579729 
L 513.052364 205.185904 
" style="fill:none;stroke:#ff7f0e;stroke-linecap:square;stroke-width:1.5;"/>
    <defs>
     <path d="M 0 3 
C 0.795609 3 1.55874 2.683901 2.12132 2.12132 
C 2.683901 1.55874 3 0.795609 3 0 
C 3 -0.795609 2.683901 -1.55874 2.12132 -2.12132 
C 1.55874 -2.683901 0.795609 -3 0 -3 
C -0.795609 -3 -1.55874 -2.683901 -2.12132 -2.12132 
C -2.683901 -1.55874 -3 -0.795609 -3 0 
C -3 0.795609 -2.683901 1.55874 -2.12132 2.12132 
C -1.55874 2.683901 -0.795609 3 0 3 
z
" id="mf9bf034729" style="stroke:#ff7f0e;"/>
    </defs>
    <g clip-path="url(#p4423a5532e)">
     <use style="fill:#ff7f0e;stroke:#ff7f0e;" x="95.059636" xlink:href="#mf9bf034729" y="224.7048"/>
     <use style="fill:#ff7f0e;stroke:#ff7f0e;" x="101.39286" xlink:href="#mf9bf034729" y="253.886816"/>
     <use style="fill:#ff7f0e;stroke:#ff7f0e;" x="107.726083" xlink:href="#mf9bf034729" y="282.035045"/>
     <use style="fill:#ff7f0e;stroke:#ff7f0e;" x="114.059306" xlink:href="#mf9bf034729" y="308.152322"/>
     <use style="fill:#ff7f0e;stroke:#ff7f0e;" x="120.392529" xlink:href="#mf9bf034729" y="331.313428"/>
     <use style="fill:#ff7f0e;stroke:#ff7f0e;" x="126.725752" xlink:href="#mf9bf034729" y="350.697871"/>
     <use style="fill:#ff7f0e;stroke:#ff7f0e;" x="133.058975" xlink:href="#mf9bf034729" y="365.618946"/>
     <use style="fill:#ff7f0e;stroke:#ff7f0e;" x="139.392198" xlink:href="#mf9bf034729" y="375.548067"/>
     <use style="fill:#ff7f0e;stroke:#ff7f0e;" x="145.725421" xlink:href="#mf9bf034729" y="380.133491"/>
     <use style="fill:#ff7f0e;stroke:#ff7f0e;" x="152.058645" xlink:href="#mf9bf034729" y="379.212775"/>
     <use style="fill:#ff7f0e;stroke:#ff7f0e;" x="158.391868" xlink:href="#mf9bf034729" y="372.818538"/>
     <use style="fill:#ff7f0e;stroke:#ff7f0e;" x="164.725091" xlink:href="#mf9bf034729" y="361.177297"/>
     <use style="fill:#ff7f0e;stroke:#ff7f0e;" x="171.058314" xlink:href="#mf9bf034729" y="344.70145"/>
     <use style="fill:#ff7f0e;stroke:#ff7f0e;" x="177.391537" xlink:href="#mf9bf034729" y="323.974662"/>
     <use style="fill:#ff7f0e;stroke:#ff7f0e;" x="183.72476" xlink:href="#mf9bf034729" y="299.73119"/>
     <use style="fill:#ff7f0e;stroke:#ff7f0e;" x="190.057983" xlink:href="#mf9bf034729" y="272.829871"/>
     <use style="fill:#ff7f0e;stroke:#ff7f0e;" x="196.391207" xlink:href="#mf9bf034729" y="244.223696"/>
     <use style="fill:#ff7f0e;stroke:#ff7f0e;" x="202.72443" xlink:href="#mf9bf034729" y="214.926056"/>
     <use style="fill:#ff7f0e;stroke:#ff7f0e;" x="209.057653" xlink:href="#mf9bf034729" y="185.974832"/>
     <use style="fill:#ff7f0e;stroke:#ff7f0e;" x="215.390876" xlink:href="#mf9bf034729" y="158.395636"/>
     <use style="fill:#ff7f0e;stroke:#ff7f0e;" x="221.724099" xlink:href="#mf9bf034729" y="133.165476"/>
     <use style="fill:#ff7f0e;stroke:#ff7f0e;" x="228.057322" xlink:href="#mf9bf034729" y="111.178142"/>
     <use style="fill:#ff7f0e;stroke:#ff7f0e;" x="234.390545" xlink:href="#mf9bf034729" y="93.212546"/>
     <use style="fill:#ff7f0e;stroke:#ff7f0e;" x="240.723769" xlink:href="#mf9bf034729" y="79.905129"/>
     <use style="fill:#ff7f0e;stroke:#ff7f0e;" x="247.056992" xlink:href="#mf9bf034729" y="71.727313"/>
     <use style="fill:#ff7f0e;stroke:#ff7f0e;" x="253.390215" xlink:href="#mf9bf034729" y="68.9688"/>
     <use style="fill:#ff7f0e;stroke:#ff7f0e;" x="259.723438" xlink:href="#mf9bf034729" y="71.727313"/>
     <use style="fill:#ff7f0e;stroke:#ff7f0e;" x="266.056661" xlink:href="#mf9bf034729" y="79.905129"/>
     <use style="fill:#ff7f0e;stroke:#ff7f0e;" x="272.389884" xlink:href="#mf9bf034729" y="93.212546"/>
     <use style="fill:#ff7f0e;stroke:#ff7f0e;" x="278.723107" xlink:href="#mf9bf034729" y="111.178142"/>
     <use style="fill:#ff7f0e;stroke:#ff7f0e;" x="285.056331" xlink:href="#mf9bf034729" y="133.165476"/>
     <use style="fill:#ff7f0e;stroke:#ff7f0e;" x="291.389554" xlink:href="#mf9bf034729" y="158.395636"/>
     <use style="fill:#ff7f0e;stroke:#ff7f0e;" x="297.722777" xlink:href="#mf9bf034729" y="185.974832"/>
     <use style="fill:#ff7f0e;stroke:#ff7f0e;" x="304.056" xlink:href="#mf9bf034729" y="214.926056"/>
     <use style="fill:#ff7f0e;stroke:#ff7f0e;" x="310.389223" xlink:href="#mf9bf034729" y="244.223696"/>
     <use style="fill:#ff7f0e;stroke:#ff7f0e;" x="316.722446" xlink:href="#mf9bf034729" y="272.829871"/>
     <use style="fill:#ff7f0e;stroke:#ff7f0e;" x="323.055669" xlink:href="#mf9bf034729" y="299.73119"/>
     <use style="fill:#ff7f0e;stroke:#ff7f0e;" x="329.388893" xlink:href="#mf9bf034729" y="323.974662"/>
     <use style="fill:#ff7f0e;stroke:#ff7f0e;" x="335.722116" xlink:href="#mf9bf034729" y="344.70145"/>
     <use style="fill:#ff7f0e;stroke:#ff7f0e;" x="342.055339" xlink:href="#mf9bf034729" y="361.177297"/>
     <use style="fill:#ff7f0e;stroke:#ff7f0e;" x="348.388562" xlink:href="#mf9bf034729" y="372.818538"/>
     <use style="fill:#ff7f0e;stroke:#ff7f0e;" x="354.721785" xlink:href="#mf9bf034729" y="379.212775"/>
     <use style="fill:#ff7f0e;stroke:#ff7f0e;" x="361.055008" xlink:href="#mf9bf034729" y="380.133491"/>
     <use style="fill:#ff7f0e;stroke:#ff7f0e;" x="367.388231" xlink:href="#mf9bf034729" y="375.548067"/>
     <use style="fill:#ff7f0e;stroke:#ff7f0e;" x="373.721455" xlink:href="#mf9bf034729" y="365.618946"/>
     <use style="fill:#ff7f0e;stroke:#ff7f0e;" x="380.054678" xlink:href="#mf9bf034729" y="350.697871"/>
     <use style="fill:#ff7f0e;stroke:#ff7f0e;" x="386.387901" xlink:href="#mf9bf034729" y="331.313428"/>
     <use style="fill:#ff7f0e;stroke:#ff7f0e;" x="392.721124" xlink:href="#mf9bf034729" y="308.152322"/>
     <use style="fill:#ff7f0e;stroke:#ff7f0e;" x="399.054347" xlink:href="#mf9bf034729" y="282.035045"/>
     <use style="fill:#ff7f0e;stroke:#ff7f0e;" x="405.38757" xlink:href="#mf9bf034729" y="253.886816"/>
     <use style="fill:#ff7f0e;stroke:#ff7f0e;" x="411.720793" xlink:href="#mf9bf034729" y="224.7048"/>
     <use style="fill:#ff7f0e;stroke:#ff7f0e;" x="418.054017" xlink:href="#mf9bf034729" y="195.522784"/>
     <use style="fill:#ff7f0e;stroke:#ff7f0e;" x="424.38724" xlink:href="#mf9bf034729" y="167.374555"/>
     <use style="fill:#ff7f0e;stroke:#ff7f0e;" x="430.720463" xlink:href="#mf9bf034729" y="141.257278"/>
     <use style="fill:#ff7f0e;stroke:#ff7f0e;" x="437.053686" xlink:href="#mf9bf034729" y="118.096172"/>
     <use style="fill:#ff7f0e;stroke:#ff7f0e;" x="443.386909" xlink:href="#mf9bf034729" y="98.711729"/>
     <use style="fill:#ff7f0e;stroke:#ff7f0e;" x="449.720132" xlink:href="#mf9bf034729" y="83.790654"/>
     <use style="fill:#ff7f0e;stroke:#ff7f0e;" x="456.053355" xlink:href="#mf9bf034729" y="73.861533"/>
     <use style="fill:#ff7f0e;stroke:#ff7f0e;" x="462.386579" xlink:href="#mf9bf034729" y="69.276109"/>
     <use style="fill:#ff7f0e;stroke:#ff7f0e;" x="468.719802" xlink:href="#mf9bf034729" y="70.196825"/>
     <use style="fill:#ff7f0e;stroke:#ff7f0e;" x="475.053025" xlink:href="#mf9bf034729" y="76.591062"/>
     <use style="fill:#ff7f0e;stroke:#ff7f0e;" x="481.386248" xlink:href="#mf9bf034729" y="88.232303"/>
     <use style="fill:#ff7f0e;stroke:#ff7f0e;" x="487.719471" xlink:href="#mf9bf034729" y="104.70815"/>
     <use style="fill:#ff7f0e;stroke:#ff7f0e;" x="494.052694" xlink:href="#mf9bf034729" y="125.434938"/>
     <use style="fill:#ff7f0e;stroke:#ff7f0e;" x="500.385917" xlink:href="#mf9bf034729" y="149.67841"/>
     <use style="fill:#ff7f0e;stroke:#ff7f0e;" x="506.71914" xlink:href="#mf9bf034729" y="176.579729"/>
     <use style="fill:#ff7f0e;stroke:#ff7f0e;" x="513.052364" xlink:href="#mf9bf034729" y="205.185904"/>
    </g>
   </g>
   <g id="patch_3">
    <path d="M 74.16 396.0144 
L 74.16 53.3952 
" style="fill:none;stroke:#000000;stroke-linecap:square;stroke-linejoin:miter;stroke-width:0.8;"/>
   </g>
   <g id="patch_4">
    <path d="M 533.952 396.0144 
L 533.952 53.3952 
" style="fill:none;stroke:#000000;stroke-linecap:square;stroke-linejoin:miter;stroke-width:0.8;"/>
   </g>
   <g id="patch_5">
    <path d="M 74.16 396.0144 
L 533.952 396.0144 
" style="fill:none;stroke:#000000;stroke-linecap:square;stroke-linejoin:miter;stroke-width:0.8;"/>
   </g>
   <g id="patch_6">
    <path d="M 74.16 53.3952 
L 533.952 53.3952 
" style="fill:none;stroke:#000000;stroke-linecap:square;stroke-linejoin:miter;stroke-width:0.8;"/>
   </g>
   <g id="text_21">
    <!-- Simple plot -->
    <defs>
     <path d="M 53.515625 70.515625 
L 53.515625 60.890625 
Q 47.90625 63.578125 42.921875 64.890625 
Q 37.9375 66.21875 33.296875 66.21875 
Q 25.25 66.21875 20.875 63.09375 
Q 16.5 59.96875 16.5 54.203125 
Q 16.5 49.359375 19.40625 46.890625 
Q 22.3125 44.4375 30.421875 42.921875 
L 36.375 41.703125 
Q 47.40625 39.59375 52.65625 34.296875 
Q 57.90625 29 57.90625 20.125 
Q 57.90625 9.515625 50.796875 4.046875 
Q 43.703125 -1.421875 29.984375 -1.421875 
Q 24.8125 -1.421875 18.96875 -0.25 
Q 13.140625 0.921875 6.890625 3.21875 
L 6.890625 13.375 
Q 12.890625 10.015625 18.65625 8.296875 
Q 24.421875 6.59375 29.984375 6.59375 
Q 38.421875 6.59375 43.015625 9.90625 
Q 47.609375 13.234375 47.609375 19.390625 
Q 47.609375 24.75 44.3125 27.78125 
Q 41.015625 30.8125 33.5 32.328125 
L 27.484375 33.5 
Q 16.453125 35.6875 11.515625 40.375 
Q 6.59375 45.0625 6.59375 53.421875 
Q 6.59375 63.09375 13.40625 68.65625 
Q 20.21875 74.21875 32.171875 74.21875 
Q 37.3125 74.21875 42.625 73.28125 
Q 47.953125 72.359375 53.515625 70.515625 
" id="DejaVuSans-53"/>
     <path d="M 18.109375 8.203125 
L 18.109375 -20.796875 
L 9.078125 -20.796875 
L 9.078125 54.6875 
L 18.109375 54.6875 
L 18.109375 46.390625 
Q 20.953125 51.265625 25.265625 53.625 
Q 29.59375 56 35.59375 56 
Q 45.5625 56 51.78125 48.09375 
Q 58.015625 40.1875 58.015625 27.296875 
Q 58.015625 14.40625 51.78125 6.484375 
Q 45.5625 -1.421875 35.59375 -1.421875 
Q 29.59375 -1.421875 25.265625 0.953125 
Q 20.953125 3.328125 18.109375 8.203125 
M 48.6875 27.296875 
Q 48.6875 37.203125 44.609375 42.84375 
Q 40.53125 48.484375 33.40625 48.484375 
Q 26.265625 48.484375 22.1875 42.84375 
Q 18.109375 37.203125 18.109375 27.296875 
Q 18.109375 17.390625 22.1875 11.75 
Q 26.265625 6.109375 33.40625 6.109375 
Q 40.53125 6.109375 44.609375 11.75 
Q 48.6875 17.390625 48.6875 27.296875 
" id="DejaVuSans-70"/>
    </defs>
    <g transform="translate(270.161625 47.3952)scale(0.12 -0.12)">
     <use xlink:href="#DejaVuSans-53"/>
     <use x="63.476562" xlink:href="#DejaVuSans-69"/>
     <use x="91.259766" xlink:href="#DejaVuSans-6d"/>
     <use x="188.671875" xlink:href="#DejaVuSans-70"/>
     <use x="252.148438" xlink:href="#DejaVuSans-6c"/>
     <use x="279.931641" xlink:href="#DejaVuSans-65"/>
     <use x="341.455078" xlink:href="#DejaVuSans-20"/>
     <use x="373.242188" xlink:href="#DejaVuSans-70"/>
     <use x="436.71875" xlink:href="#DejaVuSans-6c"/>
     <use x="464.501953" xlink:href="#DejaVuSans-6f"/>
     <use x="525.683594" xlink:href="#DejaVuSans-74"/>
    </g>
   </g>
  </g>
 </g>
 <defs>
  <clipPath id="p4423a5532e">
   <rect height="342.6192" width="459.792" x="74.16" y="53.3952"/>
  </clipPath>
 </defs>
</svg>
